<svg xmlns="http://www.w3.org/2000/svg" width="616" height="616"><g fill="none" fill-rule="nonzero" opacity=".499"><path fill="#3E4C60" d="M272.274 427.81c25.188 7.132 51.518 6.09 75.452-2.117 6.257-2.148 13.125.85 15.843 6.86l65.287 144.118c3.008 6.652-.129 14.458-6.916 17.183-69.807 27.955-145.742 28.868-214.1 5.995-6.981-2.34-10.616-9.954-7.979-16.799l57.036-147.483c2.38-6.139 9.055-9.553 15.409-7.758h-.032ZM3.257 367.981c6.987 34.602 20.097 68.594 39.65 100.425 19.585 31.862 44.01 58.918 71.768 80.817 5.754 4.533 14.12 3.396 18.399-2.531l92.49-128.17c3.847-5.335 3.078-12.768-1.89-17.077-19.633-17.06-33.048-39.487-39.218-63.836-1.619-6.392-7.87-10.477-14.392-9.452l-156.23 24.59c-7.228 1.137-12.02 8.09-10.577 15.25v-.016ZM13.011 207.78A306.17 306.17 0 0 0 .138 261.454c-1.061 7.22 4.13 13.866 11.427 14.601l157.646 15.879c6.557.655 12.616-3.706 13.886-10.144a124.892 124.892 0 0 1 2.427-10.112c1.8-6.294-1.656-12.892-7.795-15.256L29.854 199.856c-6.846-2.62-14.497.99-16.843 7.907v.016ZM65.35 132.942l128.567 92.619c5.334 3.838 12.788 3.099 17.093-1.879 2.297-2.65 4.691-5.17 7.181-7.595 4.723-4.592 5.077-12.06.932-17.181L119.488 75.762c-4.61-5.7-13.044-6.375-18.539-1.526a306.914 306.914 0 0 0-38.17 40.288c-4.546 5.749-3.39 14.13 2.555 18.418h.016ZM185.126 36.292l64.713 144.124c2.685 5.992 9.478 9.036 15.68 6.905a121.12 121.12 0 0 1 9.988-2.98c6.345-1.618 10.357-7.898 9.334-14.37L260.244 13.83c-1.135-7.226-8.055-12.016-15.216-10.575a304.155 304.155 0 0 0-52.934 15.845c-6.777 2.724-9.957 10.526-6.968 17.19ZM335.912 11.53l-15.847 157.185c-.657 6.57 3.765 12.578 10.239 13.844a125.555 125.555 0 0 1 35.765 12.867c11.506 6.233 21.52 13.892 30.141 22.736 4.615 4.727 12.067 5.128 17.194.978l122.84-99.439c5.656-4.583 6.378-12.979 1.57-18.442C488.412 45.226 421.496 10.44 350.59.137c-7.243-1.057-13.925 4.118-14.662 11.393h-.016Z"/><path fill="#FF6900" d="M425.7 265.053c8.176 23.793 9.234 49.978 2.165 75.039-1.795 6.341 1.619 13.004 7.774 15.364l147.58 56.688c6.844 2.633 14.458-1.027 16.782-7.979 22.697-68.07 21.752-143.639-6.09-213.106-2.71-6.775-10.532-9.922-17.184-6.92L432.56 249.224c-6.01 2.713-9.008 9.568-6.876 15.813l.016.016Z"/><path fill="#3E4C60" d="m392.883 413.138 99.708 123.107c4.608 5.703 13.037 6.362 18.528 1.51a307.056 307.056 0 0 0 38.117-40.36c4.528-5.769 3.372-14.14-2.585-18.43l-128.593-92.53c-5.346-3.84-12.78-3.085-17.083 1.895a124.01 124.01 0 0 1-7.177 7.616c-4.72 4.595-5.058 12.067-.915 17.192Z"/></g></svg>
