<svg xmlns="http://www.w3.org/2000/svg" width="79" height="79"><g fill="none" fill-rule="nonzero"><path fill="#3E4C60" d="M34.516 54.368a16.3 16.3 0 0 0 9.8-.277 1.663 1.663 0 0 1 2.057.898l8.478 18.863c.391.87-.016 1.893-.898 2.25-9.066 3.658-18.927 3.778-27.805.784a1.685 1.685 0 0 1-1.036-2.199l7.407-19.304a1.665 1.665 0 0 1 2.001-1.015h-.004ZM1.033 47.176c.9 4.48 2.59 8.88 5.11 13.002a39.853 39.853 0 0 0 9.25 10.462c.742.587 1.82.44 2.372-.327l11.921-16.594a1.656 1.656 0 0 0-.244-2.21 16.228 16.228 0 0 1-5.054-8.265 1.647 1.647 0 0 0-1.855-1.224L2.396 45.204a1.664 1.664 0 0 0-1.363 1.974v-.002ZM1.679 27.133a39.506 39.506 0 0 0-1.661 6.926 1.654 1.654 0 0 0 1.474 1.884l20.342 2.049a1.652 1.652 0 0 0 1.791-1.31c.085-.436.191-.871.314-1.304.232-.812-.214-1.664-1.006-1.969L3.853 26.11a1.667 1.667 0 0 0-2.174 1.02v.003ZM8.693 17.89l16.667 11.8c.691.488 1.657.394 2.215-.24.298-.338.608-.659.931-.968a1.607 1.607 0 0 0 .121-2.188L15.711 10.607a1.69 1.69 0 0 0-2.403-.195 39.393 39.393 0 0 0-4.948 5.132c-.59.733-.44 1.8.331 2.347h.002ZM24.145 4.319l8.33 18.697c.345.777 1.22 1.172 2.017.896.424-.148.852-.276 1.286-.387.817-.21 1.333-1.024 1.202-1.864L33.814 1.405A1.651 1.651 0 0 0 31.855.033a38.919 38.919 0 0 0-6.813 2.056 1.674 1.674 0 0 0-.897 2.23ZM43.088 1.506l-2.08 20.533a1.672 1.672 0 0 0 1.344 1.809c1.602.312 3.184.866 4.693 1.68A16.397 16.397 0 0 1 51 28.499c.606.618 1.584.67 2.257.128l16.119-12.99a1.673 1.673 0 0 0 .206-2.409C63.099 5.907 54.319 1.364 45.014.017a1.685 1.685 0 0 0-1.924 1.49h-.002Z"/><path fill="#FF6900" d="M54.092 34.703a16.36 16.36 0 0 1 .283 9.787 1.666 1.666 0 0 0 1.018 2.004l19.316 7.394a1.683 1.683 0 0 0 2.197-1.04c2.97-8.88 2.847-18.736-.797-27.797a1.68 1.68 0 0 0-2.25-.902l-18.87 8.489a1.672 1.672 0 0 0-.9 2.063l.003.002Z"/><path fill="#3E4C60" d="m50.374 52.712 12.925 15.682c.597.727 1.69.81 2.402.193a39.408 39.408 0 0 0 4.94-5.142 1.623 1.623 0 0 0-.334-2.348L53.637 49.31c-.693-.49-1.657-.393-2.214.242-.298.337-.608.66-.93.97a1.609 1.609 0 0 0-.12 2.19Z"/></g></svg>