<svg xmlns="http://www.w3.org/2000/svg" width="153" height="30"><g fill="#FFF" fill-rule="nonzero"><path d="M17.728 1.532c.486.244.766.618.842 1.124.076.508-.062.972-.412 1.39-.242.355-.55.546-.927.58-.376.033-.76-.05-1.156-.248a9.746 9.746 0 0 0-2-.795 8.268 8.268 0 0 0-2.232-.298c-1.257 0-2.385.211-3.387.63A7.738 7.738 0 0 0 5.86 5.668 7.602 7.602 0 0 0 4.19 8.35c-.384 1.037-.578 2.184-.578 3.443 0 1.391.21 2.622.629 3.69.418 1.07.996 1.976 1.734 2.715a7.042 7.042 0 0 0 2.613 1.655c1.002.365 2.088.545 3.255.545.75 0 1.482-.087 2.198-.264a8.237 8.237 0 0 0 2.031-.795c.396-.2.783-.27 1.157-.217.373.057.693.248.96.58.353.463.485.938.395 1.421-.087.486-.365.84-.828 1.06-.55.309-1.156.579-1.818.812-.663.23-1.333.407-2.018.528-.682.121-1.378.183-2.083.183-1.585 0-3.09-.264-4.512-.795a11.2 11.2 0 0 1-3.77-2.319C2.465 19.577 1.6 18.33.96 16.851.32 15.372 0 13.683 0 11.786c0-1.7.297-3.265.892-4.701a11.307 11.307 0 0 1 2.495-3.74A11.41 11.41 0 0 1 7.14.876C8.57.292 10.137 0 11.835 0a12.068 12.068 0 0 1 5.882 1.52l.011.012ZM22.356 3.384c-.463 0-.859-.15-1.19-.447a1.465 1.465 0 0 1-.497-1.141c0-.464.166-.871.497-1.158.331-.287.727-.43 1.19-.43h15.009c.485 0 .887.149 1.206.447.32.298.48.677.48 1.14 0 .464-.16.872-.48 1.159-.32.286-.72.43-1.206.43h-15.01Zm7.504 19.995c-.53 0-.96-.16-1.288-.48-.331-.321-.497-.723-.497-1.21V1.864h3.57v19.83c0 .486-.171.888-.513 1.208-.343.32-.767.48-1.272.48v-.002ZM62.485 5.668c1.543 0 2.913.385 4.114 1.158 1.201.773 2.155 1.827 2.86 3.162.704 1.335 1.058 2.886 1.058 4.65 0 1.766-.354 3.328-1.058 4.686-.705 1.357-1.653 2.422-2.843 3.195-1.19.773-2.534 1.158-4.033 1.158-.836 0-1.63-.132-2.38-.396a7.35 7.35 0 0 1-1.984-1.043 6.974 6.974 0 0 1-1.406-1.374c-.365-.486-.59-.928-.679-1.324l.892-.464v9.235c0 .486-.16.888-.48 1.208-.32.32-.71.481-1.173.481a1.67 1.67 0 0 1-1.206-.48c-.32-.32-.48-.723-.48-1.209V7.588c0-.464.16-.86.48-1.192.32-.331.721-.497 1.206-.497.486 0 .854.166 1.174.497.32.332.48.728.48 1.192v2.285l-.531-.298c.067-.419.275-.855.629-1.307.353-.453.8-.877 1.338-1.273a7.044 7.044 0 0 1 1.853-.961 6.532 6.532 0 0 1 2.166-.366h.003Zm-.365 3.047c-1.058 0-1.978.258-2.761.778a5.322 5.322 0 0 0-1.836 2.102c-.44.883-.662 1.897-.662 3.047 0 1.15.219 2.147.662 3.063.44.916 1.053 1.633 1.836 2.153.783.52 1.703.778 2.761.778s1.94-.258 2.711-.778c.772-.517 1.378-1.237 1.819-2.153.44-.916.662-1.936.662-3.063 0-1.127-.222-2.136-.662-3.03-.44-.893-1.047-1.599-1.819-2.119-.772-.517-1.675-.778-2.71-.778ZM50.058 6.315c-.309-.32-.707-.48-1.19-.48s-.881.16-1.19.48c-.308.32-.463.722-.463 1.208v8.937c0 .84-.177 1.57-.53 2.2a3.778 3.778 0 0 1-1.454 1.473c-.617.354-1.344.531-2.18.531-1.258 0-2.206-.337-2.843-1.009-.64-.674-.96-1.74-.96-3.195V7.523c0-.486-.16-.888-.48-1.208-.32-.32-.71-.48-1.173-.48-.463 0-.887.16-1.207.48-.32.32-.48.722-.48 1.208v9.83c0 1.237.239 2.333.713 3.294.471.961 1.145 1.712 2.015 2.251.87.54 1.911.813 3.124.813.948 0 1.807-.135 2.579-.4a6.351 6.351 0 0 0 2.031-1.124 5.12 5.12 0 0 0 .812-.843v6.967c0 .149.014.287.047.419.065.303.21.567.432.79.32.32.71.48 1.174.48.463 0 .886-.16 1.206-.48.32-.32.48-.723.48-1.209V7.523c0-.486-.154-.888-.463-1.208ZM81.597 23.71c-1.83 0-3.416-.379-4.76-1.14a8.007 8.007 0 0 1-3.124-3.145c-.738-1.335-1.108-2.864-1.108-4.584 0-1.942.39-3.603 1.173-4.982.783-1.38 1.802-2.44 3.059-3.179 1.257-.739 2.59-1.11 4-1.11 1.08 0 2.104.216 3.072.646a8.544 8.544 0 0 1 4.398 4.469c.44 1.026.67 2.147.693 3.36a1.49 1.49 0 0 1-.53 1.094 1.71 1.71 0 0 1-1.157.43H74.454l-.794-2.813h12.43l-.629.596v-.826a3.65 3.65 0 0 0-.794-2.021 5 5 0 0 0-1.704-1.357 4.764 4.764 0 0 0-2.132-.498c-.663 0-1.294.104-1.9.315a4.319 4.319 0 0 0-1.62 1.009c-.474.463-.847 1.076-1.125 1.838-.275.761-.413 1.706-.413 2.83 0 1.214.253 2.273.76 3.178.509.905 1.19 1.605 2.05 2.102a5.571 5.571 0 0 0 2.842.745c.814 0 1.482-.082 2.001-.247.517-.166.96-.368 1.322-.613.365-.242.677-.475.943-.694.331-.2.649-.298.96-.298.418 0 .76.138 1.024.413.264.276.396.602.396.975 0 .486-.241.928-.727 1.324-.595.573-1.417 1.082-2.464 1.523a8.389 8.389 0 0 1-3.289.663l.006-.002ZM108.479 23.85c-.702 0-1.33-.264-1.82-.76a2.59 2.59 0 0 1-.747-1.854v-6.76h-8.751v6.76c0 .726-.27 1.372-.777 1.871a2.553 2.553 0 0 1-1.818.743 2.52 2.52 0 0 1-1.82-.76A2.59 2.59 0 0 1 92 21.236V2.642c0-.706.253-1.347.73-1.851A2.467 2.467 0 0 1 94.563 0c.71 0 1.336.266 1.834.774.498.507.76 1.153.76 1.868v6.76h8.752v-6.76c0-.706.253-1.347.729-1.851A2.467 2.467 0 0 1 108.473 0c.71 0 1.337.266 1.835.774.498.507.76 1.153.76 1.868v18.594c0 .726-.27 1.372-.777 1.871a2.553 2.553 0 0 1-1.818.743h.006ZM122.712 24c-1.106 0-2.236-.181-3.357-.539a9.63 9.63 0 0 1-3.154-1.709c-.966-.785-1.751-1.788-2.333-2.987-.585-1.205-.882-2.625-.882-4.218V2.642c0-.706.253-1.347.729-1.851A2.467 2.467 0 0 1 115.549 0c.71 0 1.336.266 1.835.774.498.507.76 1.153.76 1.868v11.996c0 .994.206 1.782.626 2.409.437.649.983 1.12 1.67 1.437.732.34 1.475.505 2.272.505.796 0 1.539-.165 2.271-.505a3.979 3.979 0 0 0 1.67-1.437c.423-.627.626-1.415.626-2.41V2.643c0-.706.254-1.347.73-1.851A2.467 2.467 0 0 1 129.843 0c.71 0 1.336.266 1.835.774.498.507.76 1.153.76 1.868v11.905c0 1.596-.298 3.016-.883 4.218-.582 1.196-1.367 2.2-2.333 2.987a9.626 9.626 0 0 1-3.153 1.71 11.072 11.072 0 0 1-3.357.538ZM137 23.697a2.497 2.497 0 0 1-1.82-.76 2.589 2.589 0 0 1-.747-1.85V2.791c0-.706.254-1.346.73-1.85a2.467 2.467 0 0 1 1.834-.792h6.984c2.47 0 4.404.612 5.757 1.82 1.397 1.25 2.107 2.894 2.107 4.892 0 1.534-.39 2.807-1.158 3.785a8.68 8.68 0 0 1-.551.632 6.309 6.309 0 0 1 2.138 2.25c.481.853.726 1.865.726 3.008 0 1.383-.309 2.63-.919 3.713-.634 1.13-1.647 2.007-3.006 2.608-1.283.567-2.89.842-4.916.842h-7.162l.003-.003Zm6.895-5.074c1.205 0 2.13-.12 2.747-.357.496-.19.83-.425.997-.703.195-.323.29-.7.29-1.151 0-.941-.38-1.304-.752-1.534-.699-.43-1.793-.646-3.254-.646h-4.332v4.39h4.304Zm-.62-9.374c1.33 0 2.048-.19 2.412-.351.426-.185.71-.414.85-.678.178-.34.267-.717.267-1.154 0-.547-.187-.92-.624-1.25-.529-.396-1.339-.598-2.405-.598h-4.184v4.028h3.68l.003.003Z"/></g></svg>