<svg xmlns="http://www.w3.org/2000/svg" width="114" height="28"><g fill="none" fill-rule="nonzero"><path fill="#FFF" d="M65.97.525v24.287a.51.51 0 0 1-.15.367.436.436 0 0 1-.147.105.49.49 0 0 1-.213.049h-3.28a.519.519 0 0 1-.514-.521V.524c0-.287.231-.522.514-.522h3.28c.283 0 .514.235.514.522h-.003ZM80.548 21.7H74.223a.513.513 0 0 1-.448-.413V.514A.52.52 0 0 0 73.257 0h-3.28a.515.515 0 0 0-.513.514v24.311c0 .284.23.515.514.515l10.57.007a.515.515 0 0 0 .514-.515v-2.617a.515.515 0 0 0-.514-.515ZM59.054 24.58l-6.643-12.11a.508.508 0 0 1 0-.49L58.575.752a.514.514 0 0 0-.21-.693.523.523 0 0 0-.24-.059h-3.721a.516.516 0 0 0-.448.263L48.914 9.45V.515A.515.515 0 0 0 48.4 0h-3.28a.515.515 0 0 0-.514.514v24.311c0 .284.231.515.514.515h3.28a.515.515 0 0 0 .514-.514v-5.604l-1.524-6.993 7.049 12.849c.09.16.262.262.447.262h3.72a.508.508 0 0 0 .448-.756v-.003ZM92.943.514V3.14c0 .284-.23.515-.514.515h-6.353l2.018 1.421a.262.262 0 0 1 .108.21v19.544c0 .284-.23.514-.514.514h-3.224a.515.515 0 0 1-.514-.514V4.165a.51.51 0 0 0-.458-.507h-3.769a.515.515 0 0 1-.514-.515V.515c0-.284.23-.515.514-.515h12.7c.283 0 .513.231.513.514h.007Z"/><path fill="#F96943" d="m106.108 2.87-4.07-2.853h-3.185c-.346 0-.63.235-.63.522v3.265l3.277 2.297 4.608-3.231ZM106.745 22.915l3.52 2.467h3.099a.713.713 0 0 0 .44-.15.482.482 0 0 0 .186-.372v-3.328l-2.637-1.848-4.612 3.23h.004Z"/><path fill="#FFF" d="M113.997.43v3.375L99.74 13.797a3.996 3.996 0 0 0-1.525 3.136V8.4L110.19.01h3.21c.297.008.542.186.598.42Z"/><path fill="#F96943" d="m110.87 12.67 1.504-1.053.007-.008a3.993 3.993 0 0 0 1.616-3.213l-2.644-1.851-4.612 3.23 4.126 2.891.004.004ZM106.108 16.006l-4.126-2.892-2.241 1.572A4.008 4.008 0 0 0 98.304 17l3.196 2.24 4.612-3.231-.004-.003Z"/><path fill="#FFF" d="m112.381 11.61-.007.007-14.154 9.918V28L114 16.94V8.4a4.003 4.003 0 0 1-1.615 3.213l-.004-.003Z"/><g fill="#CCC"><path d="M0 19.201h2.885c.699 0 1.21.158 1.535.476.321.319.486.714.486 1.187 0 .63-.231 1.053-.693 1.267.298.111.521.294.668.553a1.6 1.6 0 0 1 .224.805c0 .507-.171.941-.514 1.298-.343.357-.874.539-1.59.539H0v-6.125Zm2.755 2.39c.532 0 .798-.192.798-.577 0-.385-.217-.567-.658-.567H1.33v1.148h1.426v-.003Zm.308 2.486c.245 0 .423-.06.535-.183a.615.615 0 0 0 .164-.43c0-.448-.31-.672-.933-.672H1.332v1.285h1.731ZM8.804 25.431c-.325 0-.632-.042-.923-.126a2.534 2.534 0 0 1-.807-.402 1.85 1.85 0 0 1-.598-.774 2.863 2.863 0 0 1-.224-1.165V19.2H7.58v3.763c0 .437.098.742.293.917.196.175.507.262.93.262.424 0 .72-.087.924-.266.202-.178.3-.483.3-.913V19.2h1.329v3.763c0 .437-.073.822-.217 1.151a1.912 1.912 0 0 1-.59.774 2.59 2.59 0 0 1-.808.409c-.29.088-.602.133-.934.133h-.004ZM12.843 25.326v-6.125h1.329v6.125zM15.693 25.326v-6.125h1.329v4.84h2.937v1.285zM22.843 20.479v4.847h-1.328v-4.848h-1.76v-1.277H24.6v1.277zM30.466 25.431c-.385 0-.734-.06-1.046-.182a2.191 2.191 0 0 1-.772-.493 2.825 2.825 0 0 1-.51-.721 3.589 3.589 0 0 1-.298-.854 4.599 4.599 0 0 1 0-1.828c.06-.294.16-.577.297-.854.137-.276.308-.514.51-.72.204-.207.462-.371.773-.494.312-.122.661-.182 1.046-.182.472 0 .888.091 1.248.276.36.186.644.431.85.742.203.312.357.648.458 1.012.101.36.154.742.154 1.138 0 .395-.053.777-.154 1.137s-.255.7-.458 1.011c-.203.312-.486.56-.85.743-.36.182-.776.276-1.248.276v-.007Zm0-1.284c.304 0 .56-.105.77-.312.209-.206.356-.444.436-.718a3.196 3.196 0 0 0 .007-1.732 1.544 1.544 0 0 0-.426-.707 1.084 1.084 0 0 0-.787-.301c-.315 0-.577.105-.79.312a1.597 1.597 0 0 0-.434.717 3.16 3.16 0 0 0-.045 1.519c.045.21.119.41.216.599a1.147 1.147 0 0 0 1.049.627l.004-.004ZM39.452 25.326h-1.16l-2.308-3.248a3.264 3.264 0 0 1-.263-.462c.018.098.028.252.028.462v3.248h-1.31v-6.125h1.212l2.249 3.21c.112.157.196.308.252.454a3.33 3.33 0 0 1-.028-.461V19.2h1.328v6.125Z"/></g></g></svg>