<svg xmlns="http://www.w3.org/2000/svg" width="153" height="24"><g fill="none" fill-rule="nonzero"><path fill="#FFF" d="M11.512 18c0 2.075-.528 3.593-1.586 4.556C8.868 23.52 7.25 24 5.069 24a13.675 13.675 0 0 1-4.394-.72l.55-2.565a9.348 9.348 0 0 0 1.759.522c.657.133 1.369.199 2.133.199 1.216 0 2.082-.25 2.596-.748.515-.498.774-1.236.774-2.215v-.498c-.3.149-.695.3-1.186.448a5.823 5.823 0 0 1-1.684.225c-.833 0-1.595-.133-2.285-.397A4.767 4.767 0 0 1 1.56 17.08c-.491-.514-.874-1.158-1.148-1.929C.138 14.38 0 13.486 0 12.475c0-.946.145-1.817.436-2.615a5.62 5.62 0 0 1 1.273-2.042 5.808 5.808 0 0 1 2.035-1.32c.8-.314 1.706-.473 2.72-.473a16.3 16.3 0 0 1 2.796.225c.883.148 1.632.308 2.248.474v11.278l.004-.003Zm-8.414-5.527c0 1.278.278 2.21.836 2.8.559.59 1.278.885 2.16.885.482 0 .936-.066 1.36-.199.426-.133.77-.29 1.037-.474V8.738a8.6 8.6 0 0 0-.8-.138 9.518 9.518 0 0 0-1.198-.061c-1.097 0-1.939.36-2.521 1.083-.583.721-.874 1.674-.874 2.85ZM18.954 5.974c.999 0 1.838.125 2.521.374.681.249 1.227.596 1.634 1.046.408.448.7.992.874 1.63.176.64.263 1.341.263 2.103v7.893c-.466.1-1.17.22-2.11.36-.94.142-2.002.212-3.182.212a9.496 9.496 0 0 1-2.147-.225c-.649-.149-1.203-.389-1.66-.721a3.401 3.401 0 0 1-1.074-1.295c-.259-.531-.388-1.186-.388-1.966s.145-1.379.438-1.892a3.606 3.606 0 0 1 1.185-1.258 5.17 5.17 0 0 1 1.735-.697 9.883 9.883 0 0 1 2.06-.212c.333 0 .68.022 1.049.061.366.042.758.112 1.174.212v-.498c0-.35-.042-.68-.125-.996a2.068 2.068 0 0 0-.438-.834 2.026 2.026 0 0 0-.824-.56c-.341-.133-.77-.198-1.286-.198-.698 0-1.34.05-1.923.148-.583.1-1.058.216-1.424.347l-.374-2.44c.383-.133.94-.264 1.673-.397a13.097 13.097 0 0 1 2.346-.199l.003.002Zm.25 11.228c.93 0 1.638-.05 2.122-.148v-3.336c-.166-.05-.407-.1-.723-.149a6.734 6.734 0 0 0-1.05-.074c-.332 0-.67.024-1.011.074-.342.05-.649.142-.925.274a1.684 1.684 0 0 0-.661.559c-.167.24-.25.544-.25.908 0 .715.226 1.208.675 1.481.449.274 1.056.411 1.822.411ZM31.736 19.568c-.898-.018-1.643-.116-2.234-.3-.592-.183-1.06-.443-1.411-.784a2.754 2.754 0 0 1-.736-1.269c-.143-.507-.213-1.083-.213-1.73V.498L30.163 0v14.913c0 .365.029.673.088.922s.162.46.31.635c.15.175.354.308.612.398.259.09.587.162.986.212l-.425 2.49.002-.002ZM38.203 5.974c.999 0 1.838.125 2.521.374.682.249 1.227.596 1.635 1.046.407.448.698.992.874 1.63.175.64.263 1.341.263 2.103v7.893c-.467.1-1.17.22-2.11.36-.94.142-2.002.212-3.183.212a9.496 9.496 0 0 1-2.147-.225c-.648-.149-1.203-.389-1.66-.721a3.401 3.401 0 0 1-1.074-1.295c-.258-.531-.388-1.186-.388-1.966s.145-1.379.438-1.892a3.606 3.606 0 0 1 1.186-1.258 5.17 5.17 0 0 1 1.735-.697 9.883 9.883 0 0 1 2.059-.212c.333 0 .681.022 1.05.061.365.042.757.112 1.173.212v-.498c0-.35-.041-.68-.124-.996a2.068 2.068 0 0 0-.439-.834 2.026 2.026 0 0 0-.823-.56c-.342-.133-.771-.198-1.286-.198-.699 0-1.34.05-1.924.148-.582.1-1.058.216-1.424.347l-.374-2.44c.383-.133.94-.264 1.674-.397a13.097 13.097 0 0 1 2.346-.199l.002.002Zm.25 11.228c.93 0 1.638-.05 2.122-.148v-3.336c-.166-.05-.407-.1-.723-.149a6.734 6.734 0 0 0-1.049-.074c-.333 0-.67.024-1.012.074-.342.05-.648.142-.924.274a1.684 1.684 0 0 0-.662.559c-.166.24-.25.544-.25.908 0 .715.226 1.208.675 1.481.45.274 1.056.411 1.823.411ZM46.44 6.721c.582-.166 1.34-.323 2.271-.474a19.716 19.716 0 0 1 3.096-.225c1.065 0 1.956.147 2.67.435.717.29 1.286.697 1.711 1.221.425.522.725 1.154.898 1.892.176.738.263 1.549.263 2.427v7.32h-3.02V12.47c0-.697-.047-1.291-.139-1.78-.092-.49-.24-.887-.449-1.195a1.809 1.809 0 0 0-.848-.673c-.359-.142-.795-.212-1.31-.212a9.99 9.99 0 0 0-1.198.074c-.416.05-.725.092-.924.125v10.507H46.44V6.719v.002ZM63.667 2.488c0 .564-.184 1.014-.55 1.343a1.87 1.87 0 0 1-1.299.498c-.5 0-.957-.166-1.323-.498-.366-.332-.55-.78-.55-1.343 0-.564.182-1.038.55-1.37A1.898 1.898 0 0 1 61.818.62c.517 0 .931.166 1.3.498.365.332.55.789.55 1.37Zm-.324 16.829h-3.021V6.295h3.02v13.022Z"/><path fill="#F60" d="M78.198 12.82c0 .996-.13 1.91-.388 2.74-.258.83-.629 1.544-1.11 2.14a4.963 4.963 0 0 1-1.81 1.394c-.723.332-1.545.498-2.46.498a6.034 6.034 0 0 1-1.698-.225c-.515-.15-.94-.315-1.273-.498v5.055h-3.02V6.72a24.516 24.516 0 0 1 2.271-.474 17.429 17.429 0 0 1 2.846-.225c.999 0 1.956.158 2.77.474a5.793 5.793 0 0 1 2.086 1.357c.574.59 1.015 1.304 1.324 2.14.306.84.462 1.78.462 2.827Zm-3.096.05c0-1.343-.304-2.39-.911-3.136-.607-.747-1.586-1.12-2.933-1.12-.283 0-.579.012-.887.036a4.802 4.802 0 0 0-.912.162v7.444c.265.184.62.354 1.06.511.44.158.912.236 1.411.236 1.098 0 1.902-.373 2.41-1.12.508-.747.762-1.752.762-3.013ZM88.01 9.01a9.786 9.786 0 0 0-1.036-.261 7.6 7.6 0 0 0-1.536-.138 6.16 6.16 0 0 0-1.06.098 6.497 6.497 0 0 0-.787.175v10.43h-3.02V6.916c.582-.216 1.31-.42 2.183-.61.874-.19 1.843-.286 2.91-.286.199 0 .431.013.698.037a12.688 12.688 0 0 1 1.573.25c.25.058.45.11.598.161l-.523 2.538v.005ZM101.693 12.796c0 1.03-.15 1.966-.45 2.814-.3.847-.725 1.568-1.272 2.167a5.702 5.702 0 0 1-1.985 1.393c-.773.332-1.628.498-2.559.498-.93 0-1.78-.166-2.545-.498a5.74 5.74 0 0 1-1.972-1.393c-.548-.597-.977-1.32-1.286-2.167-.309-.846-.462-1.785-.462-2.814 0-1.029.153-1.961.462-2.8a6.266 6.266 0 0 1 1.3-2.154 5.75 5.75 0 0 1 1.984-1.383c.765-.323 1.606-.485 2.521-.485.916 0 1.762.162 2.535.485a5.582 5.582 0 0 1 1.985 1.383c.55.596.977 1.315 1.286 2.154.309.839.462 1.771.462 2.8h-.004Zm-3.096 0c0-1.295-.278-2.32-.837-3.075-.558-.756-1.336-1.132-2.335-1.132-.999 0-1.777.378-2.335 1.132-.559.755-.837 1.78-.837 3.075 0 1.296.278 2.348.837 3.113.558.765 1.336 1.145 2.335 1.145.999 0 1.777-.383 2.335-1.145.559-.762.837-1.8.837-3.113ZM102.391 23.948c-.216 0-.519-.022-.91-.062a4.083 4.083 0 0 1-1.037-.236l.399-2.464c.365.116.808.175 1.323.175.699 0 1.19-.203 1.472-.61.282-.406.425-1.017.425-1.83V6.3h3.02v12.672c0 1.692-.402 2.946-1.21 3.759-.809.812-1.968 1.219-3.484 1.219l.002-.002Zm5.02-21.46c0 .564-.185 1.014-.55 1.343a1.87 1.87 0 0 1-1.3.498c-.5 0-.957-.166-1.323-.498-.366-.332-.55-.78-.55-1.343 0-.564.182-1.038.55-1.37a1.898 1.898 0 0 1 1.323-.498c.517 0 .931.166 1.3.498.365.332.55.789.55 1.37ZM109.456 12.87c0-1.144.171-2.149.513-3.012.342-.863.795-1.581 1.36-2.154a5.62 5.62 0 0 1 1.948-1.295 6.04 6.04 0 0 1 2.247-.435c1.799 0 3.201.557 4.206 1.67 1.008 1.111 1.512 2.771 1.512 4.977a13.274 13.274 0 0 1-.05 1.119h-8.614c.083 1.046.453 1.854 1.11 2.427.658.572 1.61.858 2.86.858.731 0 1.401-.065 2.008-.199.607-.133 1.087-.273 1.435-.423l.399 2.464c-.167.083-.394.17-.686.262a9.502 9.502 0 0 1-.999.249c-.374.074-.777.137-1.211.188-.434.05-.874.074-1.323.074-1.148 0-2.147-.17-2.997-.511-.848-.339-1.549-.813-2.097-1.42a5.779 5.779 0 0 1-1.222-2.14c-.267-.822-.399-1.722-.399-2.703v.004Zm8.763-1.343c0-.415-.06-.808-.175-1.182a2.815 2.815 0 0 0-.513-.97c-.226-.273-.5-.489-.824-.646-.324-.157-.712-.236-1.16-.236-.45 0-.875.087-1.225.262a2.801 2.801 0 0 0-.885.684 3.08 3.08 0 0 0-.561.972 5.107 5.107 0 0 0-.274 1.12h5.617v-.004ZM122.964 12.82c0-.963.149-1.863.449-2.702.3-.839.727-1.564 1.286-2.178a5.912 5.912 0 0 1 2.035-1.444c.8-.35 1.698-.522 2.697-.522 1.23 0 2.396.225 3.496.673l-.648 2.464a7.004 7.004 0 0 0-1.186-.373c-.44-.1-.91-.149-1.41-.149-1.183 0-2.081.37-2.697 1.108-.616.738-.925 1.78-.925 3.123 0 1.344.292 2.32.875 3.074.582.755 1.564 1.131 2.946 1.131.515 0 1.023-.05 1.522-.148.5-.099.932-.225 1.3-.374l.425 2.49c-.333.166-.837.315-1.51.448-.675.133-1.369.199-2.085.199-1.115 0-2.086-.17-2.91-.511-.823-.339-1.507-.813-2.048-1.42-.54-.605-.944-1.328-1.211-2.167-.267-.839-.399-1.745-.399-2.726l-.002.004ZM134.572 2.862l3.021-.498v3.934h4.644v2.514h-4.644v5.304c0 1.046.167 1.793.5 2.24.333.449.898.674 1.697.674.55 0 1.037-.057 1.461-.175.425-.116.763-.225 1.013-.323l.5 2.39c-.35.148-.81.303-1.374.46-.566.157-1.232.236-1.998.236-.934 0-1.711-.124-2.336-.373-.624-.25-1.119-.61-1.485-1.084-.366-.474-.624-1.046-.773-1.717-.15-.673-.226-1.44-.226-2.302V2.862ZM147.679 17.152c.8 0 1.382-.096 1.748-.286.366-.19.55-.518.55-.983 0-.43-.195-.789-.587-1.07-.392-.282-1.036-.59-1.935-.922-.55-.2-1.053-.411-1.509-.636a5.117 5.117 0 0 1-1.185-.784c-.333-.3-.596-.66-.787-1.084-.19-.423-.286-.941-.286-1.555 0-1.195.44-2.136 1.323-2.827.883-.688 2.08-1.033 3.595-1.033.764 0 1.498.07 2.197.212.699.142 1.224.277 1.573.41l-.55 2.44a7.525 7.525 0 0 0-1.273-.41c-.517-.125-1.115-.186-1.798-.186-.616 0-1.116.105-1.499.31-.383.208-.574.527-.574.96 0 .216.037.406.112.572.074.166.204.319.388.46.181.143.425.282.725.424.3.142.666.287 1.097.435.717.267 1.323.527 1.823.784.5.258.911.549 1.235.872.325.323.561.692.712 1.107.15.415.226.914.226 1.495 0 1.245-.462 2.186-1.384 2.826-.925.638-2.244.96-3.957.96-1.148 0-2.072-.097-2.771-.287-.699-.19-1.19-.345-1.472-.46l.523-2.515c.45.183.986.356 1.61.522.625.166 1.337.249 2.134.249h-.004Z"/></g></svg>
